<mxfile host="app.diagrams.net" modified="2024-05-22T14:06:08.614Z" agent="Mozilla/5.0 (Macintosh; Intel Mac OS X 10_15_7) AppleWebKit/537.36 (KHTML, like Gecko) Chrome/107.0.0.0 Safari/537.36 Edg/107.0.1418.35" etag="LYw3Lea-qeyarQp7PZ_H" version="24.4.6" type="github" pages="2">
  <diagram id="i7KtP-Vs8fw_sYRqWalm" name="Sequence diagram">
    <mxGraphModel dx="954" dy="591" grid="1" gridSize="10" guides="1" tooltips="1" connect="1" arrows="1" fold="1" page="1" pageScale="1" pageWidth="1019" pageHeight="1320" math="0" shadow="0">
      <root>
        <mxCell id="0" />
        <mxCell id="1" parent="0" />
        <mxCell id="HE5_hAM7Uw1PeZOW6P2--24" value="" style="rounded=0;whiteSpace=wrap;html=1;" vertex="1" parent="1">
          <mxGeometry x="130" y="410" width="350" height="240" as="geometry" />
        </mxCell>
        <mxCell id="HE5_hAM7Uw1PeZOW6P2--25" value="&lt;span style=&quot;font-size: 14px;&quot;&gt;&lt;b&gt;用户访问数据流向图&lt;/b&gt;&lt;/span&gt;" style="text;html=1;align=center;verticalAlign=middle;resizable=0;points=[];autosize=1;strokeColor=none;fillColor=none;" vertex="1" parent="1">
          <mxGeometry x="230" y="410" width="150" height="30" as="geometry" />
        </mxCell>
        <mxCell id="HE5_hAM7Uw1PeZOW6P2--22" value="" style="rounded=0;whiteSpace=wrap;html=1;" vertex="1" parent="1">
          <mxGeometry x="130" y="50" width="550" height="340" as="geometry" />
        </mxCell>
        <mxCell id="XppZFFv2hi1EjOijFOD9-2" value="管理员" style="shape=umlLifeline;participant=umlActor;perimeter=lifelinePerimeter;html=1;container=1;collapsible=0;recursiveResize=0;verticalAlign=top;spacingTop=36;outlineConnect=0;size=40;fillColor=#f8cecc;strokeColor=#b85450;" parent="1" vertex="1">
          <mxGeometry x="146" y="80" width="20" height="290" as="geometry" />
        </mxCell>
        <mxCell id="XppZFFv2hi1EjOijFOD9-3" value="" style="html=1;points=[];perimeter=orthogonalPerimeter;fillColor=#f8cecc;strokeColor=#b85450;" parent="XppZFFv2hi1EjOijFOD9-2" vertex="1">
          <mxGeometry x="5" y="70" width="10" height="230" as="geometry" />
        </mxCell>
        <mxCell id="XppZFFv2hi1EjOijFOD9-4" value="办公平台" style="shape=umlLifeline;perimeter=lifelinePerimeter;whiteSpace=wrap;html=1;container=1;collapsible=0;recursiveResize=0;outlineConnect=0;fillColor=#ffe6cc;strokeColor=#d79b00;" parent="1" vertex="1">
          <mxGeometry x="270" y="90" width="100" height="290" as="geometry" />
        </mxCell>
        <mxCell id="XppZFFv2hi1EjOijFOD9-5" value="" style="html=1;points=[];perimeter=orthogonalPerimeter;fillColor=#ffe6cc;strokeColor=#d79b00;" parent="XppZFFv2hi1EjOijFOD9-4" vertex="1">
          <mxGeometry x="45" y="80" width="10" height="210" as="geometry" />
        </mxCell>
        <mxCell id="XppZFFv2hi1EjOijFOD9-6" value="" style="html=1;points=[];perimeter=orthogonalPerimeter;fillColor=#ffe6cc;strokeColor=#d79b00;" parent="XppZFFv2hi1EjOijFOD9-4" vertex="1">
          <mxGeometry x="50" y="110" width="10" height="40" as="geometry" />
        </mxCell>
        <mxCell id="XppZFFv2hi1EjOijFOD9-7" value="保存到本地数据库" style="edgeStyle=orthogonalEdgeStyle;html=1;align=left;spacingLeft=2;endArrow=block;rounded=0;entryX=1;entryY=0;" parent="XppZFFv2hi1EjOijFOD9-4" target="XppZFFv2hi1EjOijFOD9-6" edge="1">
          <mxGeometry relative="1" as="geometry">
            <mxPoint x="55" y="100" as="sourcePoint" />
            <Array as="points">
              <mxPoint x="80" y="100" />
              <mxPoint x="80" y="110" />
            </Array>
          </mxGeometry>
        </mxCell>
        <mxCell id="XppZFFv2hi1EjOijFOD9-10" value="根据业务数据表配置权限" style="html=1;verticalAlign=bottom;endArrow=block;entryX=0;entryY=0;rounded=0;" parent="1" source="XppZFFv2hi1EjOijFOD9-3" target="XppZFFv2hi1EjOijFOD9-5" edge="1">
          <mxGeometry relative="1" as="geometry">
            <mxPoint x="245" y="170" as="sourcePoint" />
          </mxGeometry>
        </mxCell>
        <mxCell id="XppZFFv2hi1EjOijFOD9-18" value="异步MQ消息通知" style="html=1;verticalAlign=bottom;endArrow=block;rounded=0;" parent="1" edge="1">
          <mxGeometry relative="1" as="geometry">
            <mxPoint x="330" y="250" as="sourcePoint" />
            <mxPoint x="510" y="250" as="targetPoint" />
          </mxGeometry>
        </mxCell>
        <mxCell id="Qn5ItUkuixa2Q5uJuzji-2" value="业务系统" style="shape=umlLifeline;perimeter=lifelinePerimeter;whiteSpace=wrap;html=1;container=1;collapsible=0;recursiveResize=0;outlineConnect=0;fillColor=#ffe6cc;strokeColor=#d79b00;" parent="1" vertex="1">
          <mxGeometry x="471" y="90" width="100" height="290" as="geometry" />
        </mxCell>
        <mxCell id="Qn5ItUkuixa2Q5uJuzji-3" value="" style="html=1;points=[];perimeter=orthogonalPerimeter;fillColor=#ffe6cc;strokeColor=#d79b00;" parent="Qn5ItUkuixa2Q5uJuzji-2" vertex="1">
          <mxGeometry x="45" y="150" width="10" height="140" as="geometry" />
        </mxCell>
        <mxCell id="Qn5ItUkuixa2Q5uJuzji-6" value="" style="html=1;points=[];perimeter=orthogonalPerimeter;fillColor=#ffe6cc;strokeColor=#d79b00;" parent="Qn5ItUkuixa2Q5uJuzji-2" vertex="1">
          <mxGeometry x="50" y="250" width="10" height="40" as="geometry" />
        </mxCell>
        <mxCell id="Qn5ItUkuixa2Q5uJuzji-8" value="" style="html=1;points=[];perimeter=orthogonalPerimeter;fillColor=#ffe6cc;strokeColor=#d79b00;" parent="Qn5ItUkuixa2Q5uJuzji-2" vertex="1">
          <mxGeometry x="50" y="180" width="10" height="40" as="geometry" />
        </mxCell>
        <mxCell id="Qn5ItUkuixa2Q5uJuzji-9" value="保存到本地数据库" style="edgeStyle=orthogonalEdgeStyle;html=1;align=left;spacingLeft=2;endArrow=block;rounded=0;entryX=1;entryY=0;" parent="Qn5ItUkuixa2Q5uJuzji-2" edge="1">
          <mxGeometry x="-0.0909" relative="1" as="geometry">
            <mxPoint x="54" y="170" as="sourcePoint" />
            <Array as="points">
              <mxPoint x="79" y="170" />
              <mxPoint x="79" y="180" />
            </Array>
            <mxPoint x="59" y="180" as="targetPoint" />
            <mxPoint as="offset" />
          </mxGeometry>
        </mxCell>
        <mxCell id="Qn5ItUkuixa2Q5uJuzji-10" value="更新本地权限配置缓存" style="edgeStyle=orthogonalEdgeStyle;html=1;align=left;spacingLeft=2;endArrow=block;rounded=0;entryX=1;entryY=0;" parent="Qn5ItUkuixa2Q5uJuzji-2" edge="1">
          <mxGeometry x="-0.0909" relative="1" as="geometry">
            <mxPoint x="55" y="240" as="sourcePoint" />
            <Array as="points">
              <mxPoint x="80" y="240" />
              <mxPoint x="80" y="250" />
            </Array>
            <mxPoint x="60" y="250" as="targetPoint" />
            <mxPoint as="offset" />
          </mxGeometry>
        </mxCell>
        <mxCell id="HE5_hAM7Uw1PeZOW6P2--1" value="用户" style="shape=umlLifeline;participant=umlActor;perimeter=lifelinePerimeter;html=1;container=1;collapsible=0;recursiveResize=0;verticalAlign=top;spacingTop=36;outlineConnect=0;size=40;fillColor=#f8cecc;strokeColor=#b85450;" vertex="1" parent="1">
          <mxGeometry x="146" y="430" width="20" height="210" as="geometry" />
        </mxCell>
        <mxCell id="HE5_hAM7Uw1PeZOW6P2--2" value="" style="html=1;points=[];perimeter=orthogonalPerimeter;fillColor=#f8cecc;strokeColor=#b85450;" vertex="1" parent="HE5_hAM7Uw1PeZOW6P2--1">
          <mxGeometry x="5" y="70" width="10" height="140" as="geometry" />
        </mxCell>
        <mxCell id="HE5_hAM7Uw1PeZOW6P2--3" value="业务系统" style="shape=umlLifeline;perimeter=lifelinePerimeter;whiteSpace=wrap;html=1;container=1;collapsible=0;recursiveResize=0;outlineConnect=0;fillColor=#ffe6cc;strokeColor=#d79b00;" vertex="1" parent="1">
          <mxGeometry x="270" y="440" width="100" height="200" as="geometry" />
        </mxCell>
        <mxCell id="HE5_hAM7Uw1PeZOW6P2--4" value="" style="html=1;points=[];perimeter=orthogonalPerimeter;fillColor=#ffe6cc;strokeColor=#d79b00;" vertex="1" parent="HE5_hAM7Uw1PeZOW6P2--3">
          <mxGeometry x="45" y="80" width="10" height="120" as="geometry" />
        </mxCell>
        <mxCell id="HE5_hAM7Uw1PeZOW6P2--5" value="" style="html=1;points=[];perimeter=orthogonalPerimeter;fillColor=#ffe6cc;strokeColor=#d79b00;" vertex="1" parent="HE5_hAM7Uw1PeZOW6P2--3">
          <mxGeometry x="50" y="110" width="10" height="40" as="geometry" />
        </mxCell>
        <mxCell id="HE5_hAM7Uw1PeZOW6P2--6" value="根据用户获取权限信息" style="edgeStyle=orthogonalEdgeStyle;html=1;align=left;spacingLeft=2;endArrow=block;rounded=0;entryX=1;entryY=0;" edge="1" parent="HE5_hAM7Uw1PeZOW6P2--3" target="HE5_hAM7Uw1PeZOW6P2--5">
          <mxGeometry relative="1" as="geometry">
            <mxPoint x="55" y="100" as="sourcePoint" />
            <Array as="points">
              <mxPoint x="80" y="100" />
              <mxPoint x="80" y="110" />
            </Array>
          </mxGeometry>
        </mxCell>
        <mxCell id="HE5_hAM7Uw1PeZOW6P2--7" value="访问业务系统受控数据" style="html=1;verticalAlign=bottom;endArrow=block;entryX=0;entryY=0;rounded=0;" edge="1" parent="1" source="HE5_hAM7Uw1PeZOW6P2--2" target="HE5_hAM7Uw1PeZOW6P2--4">
          <mxGeometry relative="1" as="geometry">
            <mxPoint x="245" y="520" as="sourcePoint" />
          </mxGeometry>
        </mxCell>
        <mxCell id="HE5_hAM7Uw1PeZOW6P2--15" value="" style="endArrow=classic;html=1;rounded=0;" edge="1" parent="1" source="HE5_hAM7Uw1PeZOW6P2--3">
          <mxGeometry width="50" height="50" relative="1" as="geometry">
            <mxPoint x="240" y="650" as="sourcePoint" />
            <mxPoint x="170" y="613" as="targetPoint" />
          </mxGeometry>
        </mxCell>
        <mxCell id="HE5_hAM7Uw1PeZOW6P2--16" value="根据权限过滤数据返回前端" style="edgeLabel;html=1;align=center;verticalAlign=middle;resizable=0;points=[];" vertex="1" connectable="0" parent="HE5_hAM7Uw1PeZOW6P2--15">
          <mxGeometry x="0.0036" y="-1" relative="1" as="geometry">
            <mxPoint y="-12" as="offset" />
          </mxGeometry>
        </mxCell>
        <mxCell id="HE5_hAM7Uw1PeZOW6P2--23" value="&lt;font style=&quot;font-size: 14px;&quot;&gt;&lt;b&gt;权限配置、更新数据流向图&lt;/b&gt;&lt;/font&gt;" style="text;html=1;align=center;verticalAlign=middle;resizable=0;points=[];autosize=1;strokeColor=none;fillColor=none;" vertex="1" parent="1">
          <mxGeometry x="320" y="50" width="190" height="30" as="geometry" />
        </mxCell>
      </root>
    </mxGraphModel>
  </diagram>
  <diagram id="hbYBUEr95w08JzggDiKY" name="With loop">
    <mxGraphModel dx="1332" dy="983" grid="1" gridSize="10" guides="1" tooltips="1" connect="1" arrows="1" fold="1" page="1" pageScale="1" pageWidth="1019" pageHeight="1320" math="0" shadow="0">
      <root>
        <mxCell id="jC507fco_XKDHWjVbaC3-0" />
        <mxCell id="jC507fco_XKDHWjVbaC3-1" parent="jC507fco_XKDHWjVbaC3-0" />
        <mxCell id="jC507fco_XKDHWjVbaC3-2" value="sd example with a loop" style="shape=umlFrame;whiteSpace=wrap;html=1;width=150;height=30;boundedLbl=1;verticalAlign=middle;align=left;spacingLeft=5;fillColor=#f5f5f5;fontColor=#333333;strokeColor=#666666;" vertex="1" parent="jC507fco_XKDHWjVbaC3-1">
          <mxGeometry x="20" y="30" width="740" height="490" as="geometry" />
        </mxCell>
        <mxCell id="jC507fco_XKDHWjVbaC3-3" value=":Object" style="shape=umlLifeline;perimeter=lifelinePerimeter;whiteSpace=wrap;html=1;container=1;collapsible=0;recursiveResize=0;outlineConnect=0;fillColor=#dae8fc;strokeColor=#6c8ebf;" vertex="1" parent="jC507fco_XKDHWjVbaC3-1">
          <mxGeometry x="320" y="80" width="100" height="400" as="geometry" />
        </mxCell>
        <mxCell id="jC507fco_XKDHWjVbaC3-4" value="" style="html=1;points=[];perimeter=orthogonalPerimeter;" vertex="1" parent="jC507fco_XKDHWjVbaC3-3">
          <mxGeometry x="45" y="80" width="10" height="240" as="geometry" />
        </mxCell>
        <mxCell id="jC507fco_XKDHWjVbaC3-5" value="" style="html=1;points=[];perimeter=orthogonalPerimeter;" vertex="1" parent="jC507fco_XKDHWjVbaC3-3">
          <mxGeometry x="50" y="120" width="10" height="55" as="geometry" />
        </mxCell>
        <mxCell id="jC507fco_XKDHWjVbaC3-6" value="self call" style="edgeStyle=orthogonalEdgeStyle;html=1;align=left;spacingLeft=2;endArrow=block;rounded=0;entryX=1;entryY=0;" edge="1" parent="jC507fco_XKDHWjVbaC3-3" target="jC507fco_XKDHWjVbaC3-5">
          <mxGeometry relative="1" as="geometry">
            <mxPoint x="55" y="105" as="sourcePoint" />
            <Array as="points">
              <mxPoint x="85" y="105" />
            </Array>
          </mxGeometry>
        </mxCell>
        <mxCell id="jC507fco_XKDHWjVbaC3-7" value="" style="shape=umlLifeline;participant=umlActor;perimeter=lifelinePerimeter;whiteSpace=wrap;html=1;container=1;collapsible=0;recursiveResize=0;verticalAlign=top;spacingTop=36;outlineConnect=0;fillColor=#f8cecc;strokeColor=#b85450;" vertex="1" parent="jC507fco_XKDHWjVbaC3-1">
          <mxGeometry x="95" y="80" width="20" height="410" as="geometry" />
        </mxCell>
        <mxCell id="jC507fco_XKDHWjVbaC3-8" value="" style="html=1;points=[];perimeter=orthogonalPerimeter;" vertex="1" parent="jC507fco_XKDHWjVbaC3-7">
          <mxGeometry x="5" y="70" width="10" height="300" as="geometry" />
        </mxCell>
        <mxCell id="jC507fco_XKDHWjVbaC3-9" value="dispatch" style="html=1;verticalAlign=bottom;startArrow=oval;endArrow=block;startSize=8;rounded=0;" edge="1" parent="jC507fco_XKDHWjVbaC3-7" target="jC507fco_XKDHWjVbaC3-8">
          <mxGeometry relative="1" as="geometry">
            <mxPoint x="-55" y="70" as="sourcePoint" />
          </mxGeometry>
        </mxCell>
        <mxCell id="jC507fco_XKDHWjVbaC3-10" value="dispatch" style="html=1;verticalAlign=bottom;endArrow=block;entryX=0;entryY=0;rounded=0;" edge="1" parent="jC507fco_XKDHWjVbaC3-1" source="jC507fco_XKDHWjVbaC3-8" target="jC507fco_XKDHWjVbaC3-4">
          <mxGeometry relative="1" as="geometry">
            <mxPoint x="200" y="160" as="sourcePoint" />
          </mxGeometry>
        </mxCell>
        <mxCell id="jC507fco_XKDHWjVbaC3-11" value="[items=true]" style="edgeLabel;html=1;align=center;verticalAlign=middle;resizable=0;points=[];" vertex="1" connectable="0" parent="jC507fco_XKDHWjVbaC3-10">
          <mxGeometry x="-0.8588" y="2" relative="1" as="geometry">
            <mxPoint x="22" y="-8" as="offset" />
          </mxGeometry>
        </mxCell>
        <mxCell id="jC507fco_XKDHWjVbaC3-12" value="return" style="html=1;verticalAlign=bottom;endArrow=open;dashed=1;endSize=8;exitX=0;exitY=0.95;rounded=0;" edge="1" parent="jC507fco_XKDHWjVbaC3-1" source="jC507fco_XKDHWjVbaC3-4" target="jC507fco_XKDHWjVbaC3-8">
          <mxGeometry relative="1" as="geometry">
            <mxPoint x="200" y="236" as="targetPoint" />
          </mxGeometry>
        </mxCell>
        <mxCell id="jC507fco_XKDHWjVbaC3-13" value=":Object" style="shape=umlLifeline;perimeter=lifelinePerimeter;whiteSpace=wrap;html=1;container=1;collapsible=0;recursiveResize=0;outlineConnect=0;fillColor=#d5e8d4;strokeColor=#82b366;" vertex="1" parent="jC507fco_XKDHWjVbaC3-1">
          <mxGeometry x="490" y="80" width="100" height="400" as="geometry" />
        </mxCell>
        <mxCell id="jC507fco_XKDHWjVbaC3-14" value="" style="html=1;points=[];perimeter=orthogonalPerimeter;" vertex="1" parent="jC507fco_XKDHWjVbaC3-13">
          <mxGeometry x="44" y="200" width="10" height="80" as="geometry" />
        </mxCell>
        <mxCell id="jC507fco_XKDHWjVbaC3-15" value="dispatch" style="html=1;verticalAlign=bottom;endArrow=block;entryX=0;entryY=0;rounded=0;" edge="1" parent="jC507fco_XKDHWjVbaC3-1" source="jC507fco_XKDHWjVbaC3-4" target="jC507fco_XKDHWjVbaC3-14">
          <mxGeometry relative="1" as="geometry">
            <mxPoint x="374" y="280" as="sourcePoint" />
          </mxGeometry>
        </mxCell>
        <mxCell id="jC507fco_XKDHWjVbaC3-16" value="return" style="html=1;verticalAlign=bottom;endArrow=open;dashed=1;endSize=8;exitX=0;exitY=0.95;rounded=0;" edge="1" parent="jC507fco_XKDHWjVbaC3-1" source="jC507fco_XKDHWjVbaC3-14" target="jC507fco_XKDHWjVbaC3-4">
          <mxGeometry relative="1" as="geometry">
            <mxPoint x="680" y="430" as="targetPoint" />
          </mxGeometry>
        </mxCell>
        <mxCell id="jC507fco_XKDHWjVbaC3-17" value="" style="group" vertex="1" connectable="0" parent="jC507fco_XKDHWjVbaC3-1">
          <mxGeometry x="278" y="170" width="334" height="190" as="geometry" />
        </mxCell>
        <mxCell id="jC507fco_XKDHWjVbaC3-18" value="loop" style="shape=umlFrame;whiteSpace=wrap;html=1;fillColor=#ffe6cc;strokeColor=#d79b00;" vertex="1" parent="jC507fco_XKDHWjVbaC3-17">
          <mxGeometry width="334" height="190" as="geometry" />
        </mxCell>
        <mxCell id="jC507fco_XKDHWjVbaC3-19" value="&lt;span style=&quot;font-size: 11px; background-color: rgb(255, 255, 255);&quot;&gt;[items=true]&lt;/span&gt;" style="text;html=1;align=center;verticalAlign=middle;resizable=0;points=[];autosize=1;strokeColor=none;fillColor=none;" vertex="1" parent="jC507fco_XKDHWjVbaC3-17">
          <mxGeometry y="32" width="70" height="20" as="geometry" />
        </mxCell>
        <mxCell id="jC507fco_XKDHWjVbaC3-20" style="rounded=0;orthogonalLoop=1;jettySize=auto;html=1;endArrow=none;endFill=0;dashed=1;fillColor=#ffe6cc;strokeColor=#d79b00;" edge="1" parent="jC507fco_XKDHWjVbaC3-1" source="jC507fco_XKDHWjVbaC3-21" target="jC507fco_XKDHWjVbaC3-18">
          <mxGeometry relative="1" as="geometry" />
        </mxCell>
        <mxCell id="jC507fco_XKDHWjVbaC3-21" value="Only on valid items" style="shape=note2;boundedLbl=1;whiteSpace=wrap;html=1;size=25;verticalAlign=top;align=center;fillColor=#ffe6cc;strokeColor=#d79b00;" vertex="1" parent="jC507fco_XKDHWjVbaC3-1">
          <mxGeometry x="630" y="200" width="120" height="60" as="geometry" />
        </mxCell>
      </root>
    </mxGraphModel>
  </diagram>
</mxfile>
